<svg viewBox="0 0 1600 900" xmlns="http://www.w3.org/2000/svg">
          <defs>
                      <radialGradient id="moonBody" cx="35%" cy="35%" r="70%">
                                    <stop offset="0%" stop-color="#7c8794"/>
                                    <stop offset="55%" stop-color="#454e58"/>
                                    <stop offset="100%" stop-color="#12161b"/>
                      </radialGradient>
                      <radialGradient id="moonHalo" cx="50%" cy="50%" r="50%">
                                    <stop offset="0%" stop-color="#9fd7f0" stop-opacity="0.28"/>
                                    <stop offset="60%" stop-color="#9fd7f0" stop-opacity="0.08"/>
                                    <stop offset="100%" stop-color="#9fd7f0" stop-opacity="0"/>
                      </radialGradient>
                      <radialGradient id="cityGlow" cx="50%" cy="50%" r="50%">
                                    <stop offset="0%" stop-color="#ffb060" stop-opacity="0.55"/>
                                    <stop offset="45%" stop-color="#e8934a" stop-opacity="0.22"/>
                                    <stop offset="100%" stop-color="#e8934a" stop-opacity="0"/>
                      </radialGradient>
                      <radialGradient id="lightDot" cx="50%" cy="50%" r="50%">
                                    <stop offset="0%" stop-color="#ffcf94" stop-opacity="0.95"/>
                                    <stop offset="100%" stop-color="#ffcf94" stop-opacity="0"/>
                      </radialGradient>
                      <pattern id="grid" width="46" height="46" patternUnits="userSpaceOnUse">
                                    <path d="M46,0 L0,0 0,46" fill="none" stroke="#4fb8e0" stroke-width="0.6"/>
                      </pattern>
          </defs>

          <rect x="0" y="0" width="1600" height="900" fill="url(#grid)" opacity="0.05"/>

          <circle cx="430" cy="190" r="4" fill="#dfeaf2" opacity="0.8"/>
          <circle cx="620" cy="90" r="2.5" fill="#dfeaf2" opacity="0.6"/>
          <circle cx="760" cy="220" r="3" fill="#dfeaf2" opacity="0.7"/>
          <circle cx="900" cy="70" r="2" fill="#dfeaf2" opacity="0.5"/>
          <circle cx="1020" cy="180" r="3" fill="#dfeaf2" opacity="0.7"/>
          <circle cx="1150" cy="60" r="2.5" fill="#dfeaf2" opacity="0.6"/>
          <circle cx="1280" cy="150" r="2" fill="#dfeaf2" opacity="0.5"/>
          <circle cx="1380" cy="260" r="3" fill="#dfeaf2" opacity="0.65"/>
          <circle cx="1470" cy="90" r="2" fill="#dfeaf2" opacity="0.5"/>
          <circle cx="90" cy="120" r="2.5" fill="#dfeaf2" opacity="0.6"/>
          <circle cx="180" cy="260" r="2" fill="#dfeaf2" opacity="0.5"/>
          <circle cx="1550" cy="300" r="2.5" fill="#dfeaf2" opacity="0.55"/>

          <circle cx="430" cy="190" r="260" fill="url(#moonHalo)"/>
          <circle cx="430" cy="190" r="185" fill="url(#moonBody)"/>
          <circle cx="380" cy="130" r="18" fill="#12161b" opacity="0.35"/>
          <circle cx="470" cy="150" r="10" fill="#12161b" opacity="0.3"/>
          <circle cx="500" cy="230" r="24" fill="#12161b" opacity="0.3"/>
          <circle cx="360" cy="240" r="13" fill="#12161b" opacity="0.28"/>
          <circle cx="440" cy="270" r="8" fill="#12161b" opacity="0.25"/>
          <path d="M280,190 A150,150 0 0 1 420,55" fill="none" stroke="#8a95a1" stroke-width="2" opacity="0.18"/>

          <path d="M0,900 L0,620 L90,560 L170,610 L260,540 L350,600 L430,530 L520,600 L610,545 L700,605 L800,540 L900,600 L1000,545 L1100,605 L1200,540 L1300,600 L1400,555 L1500,610 L1600,570 L1600,900 Z" fill="#0d1116" opacity="0.92" stroke="#4fb8e0" stroke-width="1" stroke-opacity="0.1"/>

          <ellipse cx="800" cy="900" rx="620" ry="180" fill="url(#cityGlow)"/>

          <ellipse cx="800" cy="850" rx="480" ry="70" fill="none" stroke="#e8934a" stroke-width="10" stroke-opacity="0.35"/>
          <ellipse cx="800" cy="850" rx="330" ry="46" fill="none" stroke="#ffb060" stroke-width="6" stroke-opacity="0.3"/>

          <g>
                      <circle cx="1280" cy="850" r="6" fill="url(#lightDot)"/>
                      <circle cx="1216" cy="885" r="5" fill="url(#lightDot)"/>
                      <circle cx="1040" cy="911" r="6" fill="url(#lightDot)"/>
                      <circle cx="800" cy="920" r="7" fill="url(#lightDot)"/>
                      <circle cx="560" cy="911" r="6" fill="url(#lightDot)"/>
                      <circle cx="384" cy="885" r="5" fill="url(#lightDot)"/>
                      <circle cx="320" cy="850" r="6" fill="url(#lightDot)"/>
                      <circle cx="384" cy="815" r="5" fill="url(#lightDot)"/>
                      <circle cx="560" cy="789" r="6" fill="url(#lightDot)"/>
                      <circle cx="800" cy="780" r="7" fill="url(#lightDot)"/>
                      <circle cx="1040" cy="789" r="6" fill="url(#lightDot)"/>
                      <circle cx="1216" cy="815" r="5" fill="url(#lightDot)"/>
          </g>

          <g fill="#060809" opacity="0.95">
                      <polygon points="150,720 170,600 190,720"/>
                      <polygon points="250,730 268,630 288,730"/>
                      <polygon points="1330,730 1350,610 1372,730"/>
                      <polygon points="1420,725 1438,640 1458,725"/>
          </g>
</svg>
